<?xml version="1.0" encoding="utf-8"?>
<svg viewBox="148.419 214.578 203.162 70.844" xmlns="http://www.w3.org/2000/svg">
  <rect style="fill: rgb(0, 156, 124); paint-order: fill; stroke-dashoffset: -1px; stroke-linejoin: round;" x="148.419" y="214.578" width="203.162" height="70.844" rx="15" ry="15" transform="matrix(1, 0, 0, 1, 7.105427357601002e-15, 0)"/>
  <path style="fill: rgb(255, 255, 255);" d="M 166.638 226.991 L 166.613 263.56 L 176.539 273.237 L 176.564 236.764 L 166.638 226.991 Z" transform="matrix(1, 0, 0, 1, 7.105427357601002e-15, 0)"/>
  <path style="fill: rgb(255, 255, 255);" d="M 215.612 240.486 L 215.576 226.954 L 191.127 251.387 L 180.432 240.721 L 180.408 253.897 L 191.272 264.745 L 215.612 240.486 Z" transform="matrix(1, 0, 0, 1, 7.105427357601002e-15, 0)"/>
  <path style="fill: rgb(255, 255, 255);" d="M 205.637 274.183 L 205.637 255.291 L 215.567 245.361 L 215.599 264.257 L 205.637 274.183 Z" transform="matrix(1, 0, 0, 1, 7.105427357601002e-15, 0)"/>
  <ellipse style="fill: rgb(255, 255, 255);" cx="185.02" cy="231.617" rx="5.558" ry="5.801" transform="matrix(1, 0, 0, 1, 7.105427357601002e-15, 0)"/>
  <path d="M 246.312 252.673 C 246.312 255.55 245.803 258.072 244.786 260.239 C 243.769 262.407 242.315 264.079 240.422 265.256 C 238.529 266.434 236.358 267.022 233.909 267.022 C 231.488 267.022 229.327 266.44 227.427 265.276 C 225.528 264.112 224.056 262.45 223.012 260.289 C 221.969 258.129 221.44 255.644 221.427 252.834 L 221.427 251.389 C 221.427 248.513 221.945 245.981 222.982 243.793 C 224.019 241.606 225.484 239.927 227.377 238.756 C 229.27 237.586 231.434 237 233.869 237 C 236.304 237 238.468 237.586 240.361 238.756 C 242.254 239.927 243.719 241.606 244.756 243.793 C 245.793 245.981 246.312 248.506 246.312 251.369 L 246.312 252.673 Z M 240.211 251.349 C 240.211 248.285 239.662 245.957 238.565 244.365 C 237.468 242.773 235.903 241.977 233.869 241.977 C 231.849 241.977 230.29 242.763 229.193 244.335 C 228.096 245.907 227.541 248.212 227.528 251.249 L 227.528 252.673 C 227.528 255.657 228.076 257.972 229.173 259.617 C 230.27 261.263 231.849 262.086 233.909 262.086 C 235.93 262.086 237.482 261.293 238.565 259.707 C 239.649 258.122 240.198 255.811 240.211 252.774 L 240.211 251.349 Z" style="fill: rgb(255, 255, 255);" transform="matrix(1, 0, 0, 1, 7.105427357601002e-15, 0)"/>
  <path d="M 261.031 259.376 L 267.654 237.401 L 274.357 237.401 L 264.182 266.621 L 257.901 266.621 L 247.766 237.401 L 254.449 237.401 L 261.031 259.376 Z" style="fill: rgb(255, 255, 255);" transform="matrix(1, 0, 0, 1, 7.105427357601002e-15, 0)"/>
  <path d="M 283.499 266.621 L 277.478 266.621 L 277.478 237.401 L 283.499 237.401 L 283.499 266.621 Z" style="fill: rgb(255, 255, 255);" transform="matrix(1, 0, 0, 1, 7.105427357601002e-15, 0)"/>
  <path d="M 306.662 253.958 L 295.103 253.958 L 295.103 261.785 L 308.669 261.785 L 308.669 266.621 L 289.082 266.621 L 289.082 237.401 L 308.629 237.401 L 308.629 242.278 L 295.103 242.278 L 295.103 249.242 L 306.662 249.242 L 306.662 253.958 Z" style="fill: rgb(255, 255, 255);" transform="matrix(1, 0, 0, 1, 7.105427357601002e-15, 0)"/>
  <path d="M 327.346 258.955 C 327.346 257.818 326.945 256.945 326.142 256.336 C 325.339 255.728 323.894 255.085 321.807 254.409 C 319.72 253.734 318.067 253.069 316.85 252.413 C 313.532 250.62 311.873 248.205 311.873 245.168 C 311.873 243.59 312.318 242.182 313.208 240.944 C 314.097 239.706 315.375 238.74 317.041 238.044 C 318.706 237.348 320.576 237 322.65 237 C 324.737 237 326.596 237.378 328.229 238.134 C 329.861 238.89 331.129 239.957 332.032 241.335 C 332.935 242.713 333.386 244.279 333.386 246.031 L 327.366 246.031 C 327.366 244.693 326.944 243.653 326.101 242.91 C 325.258 242.168 324.074 241.796 322.549 241.796 C 321.078 241.796 319.934 242.108 319.118 242.73 C 318.301 243.352 317.893 244.172 317.893 245.188 C 317.893 246.138 318.371 246.934 319.328 247.576 C 320.285 248.218 321.693 248.82 323.553 249.382 C 326.978 250.413 329.473 251.691 331.038 253.215 C 332.603 254.741 333.386 256.641 333.386 258.915 C 333.386 261.444 332.429 263.427 330.516 264.865 C 328.603 266.303 326.028 267.022 322.79 267.022 C 320.543 267.022 318.496 266.611 316.649 265.788 C 314.803 264.966 313.395 263.839 312.425 262.407 C 311.455 260.975 310.97 259.316 310.97 257.43 L 317.01 257.43 C 317.01 260.654 318.937 262.266 322.79 262.266 C 324.221 262.266 325.339 261.975 326.142 261.393 C 326.945 260.811 327.346 259.999 327.346 258.955 Z" style="fill: rgb(255, 255, 255);" transform="matrix(1, 0, 0, 1, 7.105427357601002e-15, 0)"/>
</svg>