<?xml version="1.0" encoding="utf-8"?>
<svg viewBox="120.361 137.994 48.999 48.367" xmlns="http://www.w3.org/2000/svg">
  <path style="fill: rgb(0, 156, 124);" d="M 120.386 139.169 L 120.361 175.738 L 130.287 185.415 L 130.312 148.942 L 120.386 139.169 Z" transform="matrix(1, 0, 0, 1, 7.105427357601002e-15, 0)"/>
  <path style="fill: rgb(0, 156, 124);" d="M 169.36 152.664 L 169.324 139.132 L 144.875 163.565 L 134.18 152.899 L 134.156 166.075 L 145.02 176.923 L 169.36 152.664 Z" transform="matrix(1, 0, 0, 1, 7.105427357601002e-15, 0)"/>
  <path style="fill: rgb(0, 156, 124);" d="M 159.385 186.361 L 159.385 167.469 L 169.315 157.539 L 169.347 176.435 L 159.385 186.361 Z" transform="matrix(1, 0, 0, 1, 7.105427357601002e-15, 0)"/>
  <ellipse style="fill: rgb(0, 156, 124);" cx="138.768" cy="143.795" rx="5.558" ry="5.801" transform="matrix(1, 0, 0, 1, 7.105427357601002e-15, 0)"/>
</svg>