<?xml version="1.0" encoding="utf-8"?>
<svg viewBox="154.031 45.229 178.4894 54.1149" xmlns="http://www.w3.org/2000/svg">
  <path style="fill: rgb(0, 156, 124);" d="M 154.056 46.404 L 154.031 82.973 L 163.957 92.65 L 163.982 56.177 L 154.056 46.404 Z"/>
  <path style="fill: rgb(0, 156, 124);" d="M 203.03 59.899 L 202.994 46.367 L 178.545 70.8 L 167.85 60.134 L 167.826 73.31 L 178.69 84.158 L 203.03 59.899 Z"/>
  <path style="fill: rgb(0, 156, 124);" d="M 193.055 93.596 L 193.055 74.704 L 202.985 64.774 L 203.017 83.67 L 193.055 93.596 Z"/>
  <ellipse style="fill: rgb(0, 156, 124);" cx="172.438" cy="51.03" rx="5.558" ry="5.801"/>
  <path d="M 233.73 75.395 Q 233.73 79.71 232.204 82.961 Q 230.679 86.212 227.84 87.978 Q 225 89.744 221.327 89.744 Q 217.695 89.744 214.845 87.998 Q 211.996 86.252 210.43 83.011 Q 208.865 79.77 208.845 75.556 L 208.845 74.111 Q 208.845 69.796 210.4 66.515 Q 211.955 63.234 214.795 61.478 Q 217.635 59.722 221.287 59.722 Q 224.94 59.722 227.779 61.478 Q 230.619 63.234 232.174 66.515 Q 233.73 69.796 233.73 74.091 Z M 227.629 74.071 Q 227.629 69.475 225.983 67.087 Q 224.338 64.699 221.287 64.699 Q 218.257 64.699 216.611 67.057 Q 214.966 69.415 214.946 73.971 L 214.946 75.395 Q 214.946 79.871 216.591 82.339 Q 218.237 84.808 221.327 84.808 Q 224.358 84.808 225.983 82.429 Q 227.609 80.051 227.629 75.496 Z" style="fill: rgb(255, 255, 255);"/>
  <path d="M 248.449 82.098 L 255.072 60.123 L 261.775 60.123 L 251.6 89.343 L 245.319 89.343 L 235.184 60.123 L 241.867 60.123 Z" style="fill: rgb(255, 255, 255);"/>
  <path d="M 270.917 89.343 L 264.896 89.343 L 264.896 60.123 L 270.917 60.123 Z" style="fill: rgb(255, 255, 255);"/>
  <path d="M 294.08 76.68 L 282.521 76.68 L 282.521 84.507 L 296.087 84.507 L 296.087 89.343 L 276.5 89.343 L 276.5 60.123 L 296.047 60.123 L 296.047 65 L 282.521 65 L 282.521 71.964 L 294.08 71.964 Z" style="fill: rgb(255, 255, 255);"/>
  <path d="M 314.764 81.677 Q 314.764 79.971 313.56 79.058 Q 312.355 78.145 309.225 77.131 Q 306.094 76.118 304.268 75.135 Q 299.291 72.445 299.291 67.89 Q 299.291 65.522 300.626 63.666 Q 301.96 61.809 304.459 60.766 Q 306.957 59.722 310.068 59.722 Q 313.198 59.722 315.647 60.856 Q 318.095 61.99 319.45 64.057 Q 320.804 66.124 320.804 68.753 L 314.784 68.753 Q 314.784 66.746 313.519 65.632 Q 312.255 64.518 309.967 64.518 Q 307.76 64.518 306.536 65.452 Q 305.311 66.385 305.311 67.91 Q 305.311 69.335 306.746 70.298 Q 308.181 71.261 310.971 72.104 Q 316.108 73.65 318.456 75.937 Q 320.804 78.225 320.804 81.637 Q 320.804 85.43 317.934 87.587 Q 315.065 89.744 310.208 89.744 Q 306.837 89.744 304.067 88.51 Q 301.298 87.276 299.843 85.129 Q 298.388 82.981 298.388 80.152 L 304.428 80.152 Q 304.428 84.988 310.208 84.988 Q 312.355 84.988 313.56 84.115 Q 314.764 83.242 314.764 81.677 Z" style="fill: rgb(255, 255, 255);"/>
</svg>