<?xml version="1.0" encoding="utf-8"?>
<svg viewBox="204.67 155.559 158.2644 59.2584" xmlns="http://www.w3.org/2000/svg">
  <path style="fill: rgb(0, 156, 124);" d="M 204.695 156.734 L 204.67 193.303 L 214.596 202.98 L 214.621 166.507 L 204.695 156.734 Z" transform="matrix(1, 0, 0, 1, -1.4210854715202004e-14, 0)"/>
  <path style="fill: rgb(0, 156, 124);" d="M 253.669 170.229 L 253.633 156.697 L 229.184 181.13 L 218.489 170.464 L 218.465 183.64 L 229.329 194.488 L 253.669 170.229 Z" transform="matrix(1, 0, 0, 1, -1.4210854715202004e-14, 0)"/>
  <path style="fill: rgb(0, 156, 124);" d="M 243.694 203.926 L 243.694 185.034 L 253.624 175.104 L 253.656 194 L 243.694 203.926 Z" transform="matrix(1, 0, 0, 1, -1.4210854715202004e-14, 0)"/>
  <ellipse style="fill: rgb(0, 156, 124);" cx="223.077" cy="161.36" rx="5.558" ry="5.801" transform="matrix(1, 0, 0, 1, -1.4210854715202004e-14, 0)"/>
  <path d="M 270.869 203.062 Q 267.384 203.062 264.462 201.426 Q 261.541 199.789 259.834 196.885 Q 258.126 193.981 258.126 190.32 Q 258.126 186.659 259.834 183.755 Q 261.541 180.851 264.462 179.232 Q 267.384 177.613 270.869 177.613 Q 274.389 177.613 277.293 179.232 Q 280.197 180.851 281.886 183.755 Q 283.576 186.659 283.576 190.32 Q 283.576 193.981 281.886 196.885 Q 280.197 199.789 277.275 201.426 Q 274.354 203.062 270.869 203.062 Z M 270.869 196.656 Q 273.509 196.656 275.04 194.931 Q 276.571 193.206 276.571 190.32 Q 276.571 187.363 275.04 185.656 Q 273.509 183.949 270.869 183.949 Q 268.194 183.949 266.68 185.656 Q 265.166 187.363 265.166 190.32 Q 265.166 193.242 266.68 194.949 Q 268.194 196.656 270.869 196.656 Z" style="fill: rgb(0, 156, 124);"/>
  <path d="M 310.81 178 L 302.256 202.816 L 293.421 202.816 L 284.832 178 L 292.224 178 L 297.856 195.917 L 303.453 178 Z" style="fill: rgb(0, 156, 124);"/>
  <path d="M 319.847 178 L 319.847 202.816 L 312.948 202.816 L 312.948 178 Z" style="fill: rgb(0, 156, 124);"/>
  <path d="M 330.692 183.526 L 330.692 187.574 L 338.612 187.574 L 338.612 192.819 L 330.692 192.819 L 330.692 197.29 L 339.668 197.29 L 339.668 202.816 L 323.793 202.816 L 323.793 178 L 339.668 178 L 339.668 183.526 Z" style="fill: rgb(0, 156, 124);"/>
  <path d="M 352.44 203.062 Q 348.11 203.062 345.33 201.003 Q 342.549 198.944 342.338 195.107 L 349.694 195.107 Q 349.8 196.41 350.469 197.008 Q 351.138 197.606 352.194 197.606 Q 353.144 197.606 353.76 197.131 Q 354.376 196.656 354.376 195.811 Q 354.376 194.72 353.355 194.122 Q 352.334 193.523 350.046 192.784 Q 347.618 191.974 346.122 191.218 Q 344.626 190.461 343.517 189 Q 342.408 187.539 342.408 185.181 Q 342.408 182.787 343.605 181.08 Q 344.802 179.373 346.914 178.493 Q 349.026 177.613 351.701 177.613 Q 356.03 177.613 358.618 179.637 Q 361.205 181.661 361.381 185.322 L 353.883 185.322 Q 353.848 184.195 353.197 183.632 Q 352.546 183.069 351.525 183.069 Q 350.75 183.069 350.258 183.526 Q 349.765 183.984 349.765 184.829 Q 349.765 185.533 350.31 186.043 Q 350.856 186.554 351.666 186.923 Q 352.475 187.293 354.059 187.856 Q 356.418 188.666 357.949 189.458 Q 359.48 190.25 360.589 191.675 Q 361.698 193.101 361.698 195.283 Q 361.698 197.501 360.589 199.261 Q 359.48 201.021 357.386 202.042 Q 355.291 203.062 352.44 203.062 Z" style="fill: rgb(0, 156, 124);"/>
</svg>